#define box_width 16
#define box_height 16
static unsigned char box_bits[] = {
   0xff, 0xff, 0x01, 0x80, 0x01, 0x80, 0xf9, 0x9f, 0xf9, 0x9f, 0xf9, 0x9f,
   0xf9, 0x9f, 0xf9, 0x9f, 0xf9, 0x9f, 0xf9, 0x9f, 0xf9, 0x9f, 0xf9, 0x9f,
   0xf9, 0x9f, 0x01, 0x80, 0x01, 0x80, 0xff, 0xff };
