#define bucket_selected_width 16
#define bucket_selected_height 16
static unsigned char bucket_selected_bits[] = {
   0x00, 0x00, 0xfe, 0x7f, 0xfe, 0x7f, 0xfe, 0x7f, 0x76, 0x7e, 0x2e, 0x7c,
   0x9e, 0x61, 0x8e, 0x5b, 0x66, 0x5b, 0xf2, 0x51, 0xe6, 0x54, 0x4e, 0x46,
   0x1e, 0x6f, 0xbe, 0x7f, 0xfe, 0x7f, 0x00, 0x00 };
