#define bucket_width 16
#define bucket_height 16
static unsigned char bucket_bits[] = {
   0xff, 0xff, 0x01, 0x80, 0x01, 0x80, 0x01, 0x80, 0x89, 0x81, 0xd1, 0x83,
   0x61, 0x9e, 0x71, 0xa4, 0x99, 0xa4, 0x0d, 0xae, 0x19, 0xab, 0xb1, 0xb9,
   0xe1, 0x90, 0x41, 0x80, 0x01, 0x80, 0xff, 0xff };
