#define pen_width 16
#define pen_height 16
static unsigned char pen_bits[] = {
   0xff, 0xff, 0x01, 0x80, 0x01, 0x80, 0x01, 0x82, 0x01, 0x87, 0x01, 0x8e,
   0x81, 0x9c, 0xc1, 0x89, 0xe1, 0x83, 0xf1, 0x81, 0xf1, 0x80, 0x79, 0x80,
   0x19, 0x80, 0x01, 0x80, 0x01, 0x80, 0xff, 0xff };
