#define pen_selected_width 16
#define pen_selected_height 16
static unsigned char pen_selected_bits[] = {
   0x00, 0x00, 0xfe, 0x7f, 0xfe, 0x7f, 0xfe, 0x7d, 0xfe, 0x78, 0xfe, 0x71,
   0x7e, 0x63, 0x3e, 0x76, 0x1e, 0x7c, 0x0e, 0x7e, 0x0e, 0x7f, 0x86, 0x7f,
   0xe6, 0x7f, 0xfe, 0x7f, 0xfe, 0x7f, 0x00, 0x00 };
