#define rect_width 16
#define rect_height 16
static unsigned char rect_bits[] = {
   0xff, 0xff, 0x01, 0x80, 0x01, 0x80, 0xf9, 0x9f, 0x09, 0x90, 0x09, 0x90,
   0x09, 0x90, 0x09, 0x90, 0x09, 0x90, 0x09, 0x90, 0x09, 0x90, 0x09, 0x90,
   0xf9, 0x9f, 0x01, 0x80, 0x01, 0x80, 0xff, 0xff };
