#define rect_selected_width 16
#define rect_selected_height 16
static unsigned char rect_selected_bits[] = {
   0x00, 0x00, 0xfe, 0x7f, 0xfe, 0x7f, 0x06, 0x60, 0xf6, 0x6f, 0xf6, 0x6f,
   0xf6, 0x6f, 0xf6, 0x6f, 0xf6, 0x6f, 0xf6, 0x6f, 0xf6, 0x6f, 0xf6, 0x6f,
   0x06, 0x60, 0xfe, 0x7f, 0xfe, 0x7f, 0x00, 0x00 };
